<?xml version="1.0" encoding="utf-8"?>
<!-- Generator: Adobe Illustrator 24.1.1, SVG Export Plug-In . SVG Version: 6.00 Build 0)  -->
<svg version="1.1" id="Capa_1" xmlns="http://www.w3.org/2000/svg" xmlns:xlink="http://www.w3.org/1999/xlink" x="0px" y="0px"
	 viewBox="0 0 194 192" style="enable-background:new 0 0 194 192;" xml:space="preserve">
<style type="text/css">
	.st0{fill:none;}
	.st1{fill:#FFFFFF;}
	.st2{fill:#C31F09;}
</style>
<text transform="matrix(1 0 0 1 -2370.0161 -65.1936)" class="st1" style="font-family:'MyriadPro-Regular'; font-size:120px;">ICONOGRAFÍA</text>
<text transform="matrix(1 0 0 1 4.9839 -65.1936)" class="st1" style="font-family:'MyriadPro-Regular'; font-size:120px;">LOGO</text>
<path class="st0" d="M-2361,33h80v80h-80V33z"/>
<path class="st1" d="M-2351,93h60v-6.7h-60V93z M-2351,76.3h60v-6.7h-60V76.3z M-2351,53v6.7h60V53H-2351z"/>
<path class="st0" d="M-2251,33h80v80h-80V33z"/>
<path class="st1" d="M-2186.8,52.5h-48.3c-3.1,0-5.6,2.5-5.6,5.6v33.4c0,3.1,2.5,5.6,5.6,5.6h48.3c3.1,0,5.6-2.5,5.6-5.6V58
	C-2181.2,54.9-2183.7,52.5-2186.8,52.5z M-2188.6,57c0.2,0,0.5,0,0.7,0.1l-22.9,19.9l-22.9-19.9c0.2-0.1,0.4-0.1,0.7-0.1H-2188.6z
	 M-2186.8,93h-48.3c-1,0-1.9-0.8-1.9-1.8V61l24.8,20.8c0.3,0.3,0.8,0.4,1.2,0.4c0.4,0,0.9-0.1,1.2-0.4l24.8-20.8v30.2
	C-2184.9,92.2-2185.8,93-2186.8,93z"/>
<path class="st0" d="M-2141,33h80v80h-80V33z"/>
<path class="st0" d="M-2031,33h80v80h-80V33z"/>
<path class="st0" d="M-1921.2,34.8h80v80h-80V34.8z"/>
<g>
	<path class="st1" d="M-2112.7,92.4c3.5,2.1,7.5,3.2,11.6,3.2c12.5,0,22.7-10.2,22.7-22.7c0-12.5-10.3-22.7-22.7-22.7
		c-12.4,0-22.6,10.2-22.6,22.7c0,4.2,1.1,8.2,3.2,11.7l-3.2,11L-2112.7,92.4z M-2119.6,73c0-10.4,8.3-18.8,18.5-18.8
		c10.3,0,18.7,8.4,18.7,18.8c0,10.4-8.4,18.8-18.7,18.8c-3.5,0-7-1-10-2.9l-0.5-0.3l-6.9,2.1l2-7l-0.3-0.5
		C-2118.6,80.1-2119.6,76.6-2119.6,73z"/>
	<path class="st1" d="M-2090.1,77.6l-4.2-2.8c-0.5-0.4-1.2-0.2-1.6,0.3l-1.2,1.6c-0.2,0.2-0.4,0.3-0.7,0.1c0,0-2.5-1.6-4.5-3.5
		c-1.9-1.9-2.4-3.4-2.4-3.4c-0.1-0.2-0.1-0.5,0.1-0.7l1.6-1.2c0.5-0.4,0.6-1.1,0.3-1.6l-2.8-4.2c-0.4-0.5-1.1-0.7-1.6-0.4l-1.8,1.1
		c-0.6,0.3-1,0.9-1.1,1.5c-0.6,2.3-1.1,7.2,4.8,13c4.7,4.7,9.1,5.1,11.5,5.1c0.5,0,1.1-0.1,1.6-0.2c0.6-0.2,1.1-0.6,1.5-1.1l1.1-1.8
		C-2089.4,78.7-2089.5,78-2090.1,77.6z"/>
</g>
<g>
	<g>
		<path class="st1" d="M-1989.8,52.3c10.8,0,19.6,8.8,19.6,19.5c0,0.6,0.5,1.1,1.2,1.1c0.6,0,1.2-0.5,1.2-1.1
			c0-12.1-9.8-21.8-21.9-21.8c-0.6,0-1.2,0.5-1.2,1.1S-1990.5,52.3-1989.8,52.3z"/>
		<path class="st1" d="M-1989.8,59.2c7,0,12.8,5.7,12.8,12.7c0,0.6,0.5,1.2,1.2,1.2s1.2-0.5,1.2-1.2c0-8.3-6.8-15-15.1-15
			c-0.6,0-1.2,0.5-1.2,1.2S-1990.5,59.2-1989.8,59.2z"/>
		<path class="st1" d="M-1989.8,66c3.2,0,5.9,2.6,5.9,5.8c0,0.6,0.5,1.2,1.2,1.2c0.6,0,1.2-0.5,1.2-1.2c0-4.5-3.7-8.1-8.2-8.1
			c-0.6,0-1.2,0.5-1.2,1.2S-1990.5,66-1989.8,66z"/>
	</g>
	<path class="st1" d="M-1971.1,86l-8.9-5.9c-1.1-0.7-2.6-0.5-3.5,0.6l-2.6,3.3c-0.3,0.4-0.9,0.6-1.4,0.3c0,0-5.3-3.4-9.4-7.5
		c-4.1-4.1-5.2-7.1-5.2-7.1c-0.3-0.5-0.1-1.1,0.3-1.4l3.3-2.6c1.1-0.8,1.3-2.3,0.6-3.5l-5.9-8.9c-0.8-1.1-2.3-1.5-3.5-0.8l-3.7,2.2
		c-1.2,0.7-2,1.8-2.4,3.1c-1.3,4.9-2.3,15.1,10.1,27.5c9.8,9.8,19.2,10.7,24.2,10.7c1.2,0,2.3-0.1,3.4-0.4c1.3-0.4,2.4-1.2,3.1-2.4
		l2.2-3.7C-1969.6,88.3-1970,86.7-1971.1,86z"/>
</g>
<g>
	<circle class="st2" cx="96.4" cy="95.6" r="94.6"/>
	<g>
		<path class="st1" d="M97,0c53.1,0,96,43.1,95.9,96.2c-0.1,53-43.2,95.9-96,95.8c-53-0.1-95.8-43.1-95.7-96.1C1.2,42.9,44.1,0,97,0
			z M10.1,96c0,48,38.8,86.9,86.8,87c48.1,0.1,87.1-38.9,87.1-87c0-48-38.8-86.9-86.8-87.1C49.1,8.8,10,47.9,10.1,96z"/>
		<path class="st1" d="M92.4,143.7c0-8.7-0.1-17.2,0.1-25.7c0.1-2.7-0.7-3.6-3.5-3.5c-13.3,0.1-26.7-0.3-40,0.2
			c-10.2,0.3-17.4-8.5-15-18.4c2.9-12,8.7-22.3,18-30.5c3-2.7,6.7-3.9,10.7-3.7c1.6,0.1,2.3-0.3,3-1.8c1.8-4.4,5.3-7.1,9.7-8.5
			c14.2-4.7,28.4-4.8,42.6-0.2c4.6,1.5,8,4.3,10.1,8.6c0.7,1.4,1.5,1.9,3,1.7c4.2-0.4,7.7,1.1,10.8,4c9.6,8.7,16,19.3,18.2,32.2
			c1.5,8.7-4.7,16.4-13.5,16.5c-13.5,0.1-27,0-40.5,0.1c-1.4,0-2.8,0.1-4.4,0.2c0,9.7,0,19.3,0,29C98.5,143.7,95.7,143.7,92.4,143.7
			z M120.4,66.9c-0.1-3.7-1.8-5.5-4.5-6.5c-12.5-4.2-25-4.3-37.5-0.1c-4.7,1.6-6.1,5.3-3.6,9.6c6.3,10.9,12.6,21.7,18.9,32.6
			c2.2,3.7,4.5,3.7,6.6,0c6.3-10.8,12.6-21.7,18.9-32.6C119.8,68.9,120.2,67.6,120.4,66.9z M130.3,105.3
			C130.3,105.3,130.3,105.3,130.3,105.3c5,0.1,10,0.1,15,0.1c4.3,0,6.4-2.4,5.6-6.5c-2.1-10.4-7.1-19.2-15.1-26.2
			c-3.1-2.7-6.2-2.1-8.2,1.4c-5.1,8.7-10.1,17.5-15.1,26.3c-1.9,3.3-1,5,2.8,5C120.3,105.3,125.3,105.3,130.3,105.3z M63.6,105.3
			C63.6,105.3,63.6,105.3,63.6,105.3c5.2-0.1,10.4,0,15.6-0.1c3,0,4.2-1.7,2.8-4.2c-5.2-9.3-10.5-18.5-15.9-27.7
			c-1.6-2.8-4.8-3.3-7.3-1.2c-8.4,7.1-13.7,16-15.7,26.8c-0.7,4,1.4,6.3,5.5,6.4C53.6,105.4,58.6,105.3,63.6,105.3z"/>
	</g>
</g>
<g>
	<path class="st1" d="M275.3,138.9c-11.4,0-22.4,0-33.5,0c-0.1-1.1-0.1-2.1-0.1-3c0-28.2,0-56.5-0.1-84.7c0-2.7,0.6-3.5,3.4-3.5
		c9.2,0.2,18.3,0.1,27.5,0c2,0,3,0.6,3.9,2.4c6.5,13.4,13,26.8,19.6,40.2c0.4,0.9,0.9,1.7,1.6,3.1c0.6-1.2,1-2,1.4-2.8
		c6.6-13.6,13.2-27.1,19.9-40.6c0.4-0.9,1.5-2.1,2.3-2.1c10.6-0.1,21.2-0.1,32-0.1c0,30.4,0,60.7,0,91.1c-10.9,0-21.9,0-33.1,0
		c0-14.8,0-29.6,0-44.3c-0.3-0.1-0.5-0.2-0.8-0.2c-7.2,14.7-14.4,29.5-21.8,44.6c-7.4-15.1-14.6-29.8-21.8-44.5
		c-0.2,0-0.3,0.1-0.5,0.1C275.3,109.1,275.3,123.9,275.3,138.9z"/>
	<path class="st1" d="M793,47.9c29.7,0,59.3,0,89.1,0c0,4.7,0,9.5,0,14.5c-18.4,0-36.8,0-55.4,0c0,8,0,15.5,0,23.4
		c18.5,0,36.9,0,55.5,0c0,5.1,0,9.9,0,14.9c-18.5,0-36.9,0-55.5,0c0,7.8,0,15.4,0,23.3c18.5,0,36.9,0,55.5,0c0,5,0,9.8,0,14.8
		c-29.7,0-59.3,0-89.1,0C793,108.6,793,78.5,793,47.9z"/>
	<path class="st1" d="M678.3,85.9c0,5.1,0,9.8,0,14.8c-18.5,0-37,0-55.8,0c0,12.9,0,25.4,0,38.1c-11.3,0-22.3,0-33.5,0
		c0-30.3,0-60.4,0-90.9c29.7,0,59.3,0,89.1,0c0,4.7,0,9.4,0,14.5c-18.4,0-36.9,0-55.5,0c0,8,0,15.5,0,23.4
		C641.2,85.9,659.6,85.9,678.3,85.9z"/>
	<path class="st1" d="M475.7,136.2c-8.2-28.6-16.5-57.3-24.6-85.9c-0.6-2-1.5-2.6-3.5-2.6c-17.8,0.1-35.6,0.1-53.4,0
		c-2.7,0-3.7,0.8-4.4,3.3c-7.7,27-15.4,54-23.2,81c-0.6,2.2-1.2,4.4-1.8,6.8c11.3,0,22.3,0,33.4,0c1.2-4.2,2.6-8.4,3.6-12.6
		c0.5-1.9,1.3-2.3,3.2-2.3c8.8,0.1,17.6,0,26.4,0c2.4,0,4.8,0,7.2,0c1.3,4.6,2.5,8.9,3.9,13.2c0.2,0.7,1.2,1.8,1.8,1.8
		c10.6,0.1,21.2,0.1,32.1,0.1C476.1,137.8,475.9,137,475.7,136.2z M406.7,109c4.5-15.8,9-31.4,13.5-47c0.2,0,0.4,0,0.6,0
		c4.5,15.5,8.9,31,13.5,46.9C424.9,109,416.1,109,406.7,109z"/>
	<path class="st1" d="M780,117.7c0-12.8-7-21.4-19.6-24.5c0.7-0.2,1.3-0.4,2-0.5c12.5-2.9,20.1-15.5,16.9-27.9
		c-2.7-10.4-11.5-16.9-23.1-16.9c-20.9,0-41.7,0-62.6,0c-1,0-1.9,0-3,0c0,30.6,0,60.8,0,91c11.4,0,22.6,0,34,0c0-12.6,0-25,0-37.6
		c2.9,0,5.6-0.1,8.2,0c7.9,0.4,13.9,6.7,14,14.6c0.1,3.9,0,7.7,0,11.6c0,3.7,0,7.5,0,11.3c11.1,0,21.9,0,33.1,0c0-1.2,0-2.1,0-3.1
		C780,129.7,780,123.7,780,117.7z M740.3,83.1c-4.7,3.2-10,2.6-15.6,2.5c0-9.3,0-18.2,0-27.1c3.8,0,7.5-0.4,11,0.1
		c5.5,0.8,9.7,3.7,11,9.6C748,73.7,745.2,79.8,740.3,83.1z"/>
	<path class="st1" d="M576.5,69.4c-2.7-13.1-13-21.5-27.1-21.5c-19.8-0.1-39.6,0-59.3,0c-0.9,0-1.7,0.1-2.5,0.2
		c0,30.5,0,60.6,0,90.8c11.1,0,22.1,0,33.4,0c0-12.7,0-25.2,0-38c1.4,0,2.4,0,3.3,0c9.1,0,18.2,0.1,27.2-0.1
		C567.6,100.4,579.7,85.1,576.5,69.4z M532.3,85.2c-3,0.5-6.1,0.4-9.1,0.4c-0.5,0-1.6-1-1.6-1.5c-0.1-8.5-0.1-17-0.1-25.8
		c3.8,0,7.2-0.4,10.5,0.1c7.2,0.9,11.7,5.6,11.9,11.8C544.2,77.4,539.3,83.9,532.3,85.2z"/>
</g>
<path class="st1" d="M-1769.9,35.4c-22.1,0-40,17.9-40,40s17.9,40,40,40s40-17.9,40-40S-1747.8,35.4-1769.9,35.4z M-1781.5,98.3
	h-9.5V67.7h9.5V98.3z M-1786.3,63.6c-3,0-5.5-2.5-5.5-5.6c0-3,2.5-5.5,5.5-5.5c3,0,5.5,2.5,5.5,5.5
	C-1780.8,61.1-1783.2,63.6-1786.3,63.6z M-1746,98.3L-1746,98.3h-9.5V83.4c0-3.5-0.1-8.1-4.9-8.1c-4.9,0-5.7,3.9-5.7,7.8v15.1h-9.5
	V67.7h9.1v4.2h0.1c1.3-2.4,4.4-4.9,9-4.9c9.6,0,11.4,6.3,11.4,14.5V98.3z"/>
<path class="st1" d="M-1881,35c-22.1,0-40,17.9-40,40s17.9,40,40,40s40-17.9,40-40S-1858.9,35-1881,35z M-1869.8,59.8
	c0,0.5-0.4,0.9-0.9,0.9c-1.7,0-3,0-4,0.1c-0.8,0.1-1.3,0.2-1.7,0.5l0,0c-0.4,0.4-0.6,1-0.7,2.1c-0.1,1-0.1,2.5-0.1,4.4h6.5
	c0.5,0,0.9,0.4,0.9,0.9v7.5c0,0.5-0.4,0.9-0.9,0.9h-6.5v20h0c0,0.5-0.4,0.9-0.9,0.9l-7.5,0c-0.5,0-0.9-0.4-0.9-0.9l0-20h-5
	c-0.5,0-0.9-0.4-0.9-0.9v-7.5c0-0.5,0.4-0.9,0.9-0.9h5c0-3.7,0-6.5,0.2-8.7c0.3-2.5,0.8-4.2,1.9-5.4c1.1-1.2,2.7-1.8,5-2.1
	c2.2-0.3,5-0.3,8.8-0.3c0.5,0,0.9,0.4,0.9,0.9V59.8z"/>
<path class="st0" d="M-1809.9,35.4h80v80h-80V35.4z"/>
<path class="st0" d="M-1698.2,34.8h80v80h-80V34.8z"/>
<g>
	<path class="st1" d="M-1647.6,57.1h-21.4c-1.8,0-3.5,0.7-4.7,1.9c-1.2,1.2-1.9,2.8-1.9,4.7v21.4c0,1.8,0.7,3.5,1.9,4.7
		c1.2,1.2,2.8,1.9,4.7,1.9h21.4c1.8,0,3.5-0.7,4.7-1.9c1.2-1.2,1.9-2.8,1.9-4.7V63.7c0-1.8-0.7-3.5-1.9-4.7
		C-1644.1,57.8-1645.8,57.1-1647.6,57.1z M-1649.5,83.1c-2.2,2.2-5.3,3.6-8.8,3.6s-6.5-1.4-8.8-3.6c-2.2-2.2-3.6-5.3-3.6-8.8
		c0-3.4,1.4-6.5,3.6-8.8c2.2-2.2,5.3-3.6,8.8-3.6s6.5,1.4,8.8,3.6c2.2,2.2,3.6,5.3,3.6,8.8C-1645.9,77.8-1647.3,80.9-1649.5,83.1z
		 M-1644.4,63.3C-1644.4,63.4-1644.4,63.4-1644.4,63.3c-0.5,0.5-1.1,0.8-1.8,0.8c-0.7,0-1.3-0.3-1.8-0.7l0,0
		c-0.5-0.5-0.7-1.1-0.7-1.8s0.3-1.3,0.7-1.8v0c0.5-0.5,1.1-0.7,1.8-0.7c0,0,0,0,0,0h0c0,0,0,0,0,0c0.7,0,1.3,0.3,1.8,0.7
		c0.5,0.5,0.7,1.1,0.7,1.8S-1643.9,62.9-1644.4,63.3z"/>
	<path class="st1" d="M-1658.3,66.7c-2.1,0-4,0.9-5.4,2.2c-1.4,1.4-2.2,3.3-2.2,5.4c0,2.1,0.9,4,2.2,5.4c1.4,1.4,3.3,2.2,5.4,2.2
		c2.1,0,4-0.9,5.4-2.2s2.2-3.3,2.2-5.4c0-2.1-0.9-4-2.2-5.4C-1654.3,67.6-1656.2,66.7-1658.3,66.7z"/>
	<path class="st1" d="M-1658,35c-22.1,0-40,17.9-40,40s17.9,40,40,40s40-17.9,40-40S-1635.9,35-1658,35z M-1636,87
		c0,2.6-1.1,5-2.8,6.8c-1.7,1.7-4.1,2.8-6.8,2.8h-25.3c-2.6,0-5-1.1-6.8-2.8c-1.7-1.7-2.8-4.1-2.8-6.8V61.7c0-2.6,1.1-5,2.8-6.8
		c1.7-1.7,4.1-2.8,6.8-2.8h25.3c2.6,0,5,1.1,6.8,2.8c1.7,1.7,2.8,4.1,2.8,6.8V87z"/>
</g>
<path class="st0" d="M-1586.2,34.7h80.2v80.2h-80.2V34.7z"/>
<path class="st1" d="M-1542.8,44.7c-16.6,0-30.1,13.5-30.1,30.1h-10l13,13l0.2,0.5l13.5-13.5h-10c0-12.9,10.5-23.4,23.4-23.4
	s23.4,10.5,23.4,23.4s-10.5,23.4-23.4,23.4c-6.4,0-12.3-2.6-16.5-6.9l-4.7,4.7c5.4,5.4,12.9,8.8,21.3,8.8
	c16.6,0,30.1-13.5,30.1-30.1S-1526.1,44.7-1542.8,44.7z M-1546.1,61.4v16.7l14.3,8.5l2.4-4l-11.7-6.9V61.4H-1546.1z"/>
<path class="st0" d="M-1474.5,35.5h80v80h-80V35.5z"/>
<path class="st0" d="M-1362.9,34.3h80v80h-80V34.3z"/>
<path class="st0" d="M-1259.6,35.1h80v80h-80V35.1z"/>
<g>
	<path class="st1" d="M-1449,95.5c-3.7,0-6.7,3-6.7,6.7c0,3.7,3,6.7,6.7,6.7c3.7,0,6.7-3,6.7-6.7
		C-1442.3,98.5-1445.4,95.5-1449,95.5z"/>
	<path class="st1" d="M-1445.4,78.8h25c2.5,0,4.7-1.4,5.9-3.4l12.5-22.5l2.2-3.5c0.1-0.2,0-0.5-0.3-0.5h-7.2h0h0h0h-47.7h0l-3.2-6.7
		h-11v6.7h6.7l12.1,25.3l-4.5,8.2c-0.5,0.9-0.8,2-0.8,3.2c0,3.7,3,6.7,6.7,6.7h40.3v-6.7h-38.9c-0.4,0-0.8-0.4-0.8-0.8l0.1-0.4
		L-1445.4,78.8z M-1451.9,55.5h40.8l-9.3,16.7h-23.6l-0.4-0.9L-1451.9,55.5z"/>
	<path class="st1" d="M-1415.5,95.5c-3.7,0-6.7,3-6.7,6.7c0,3.7,3,6.7,6.7,6.7s6.7-3,6.7-6.7C-1408.8,98.5-1411.8,95.5-1415.5,95.5z
		"/>
</g>
<path class="st1" d="M-1355.6,70.9h7.3v-7.3h-7.3V70.9z M-1355.6,85.5h7.3v-7.3h-7.3V85.5z M-1355.6,56.4h7.3v-7.3h-7.3V56.4z
	 M-1341.1,70.9h51v-7.3h-51V70.9z M-1341.1,85.5h51v-7.3h-51V85.5z M-1355.6,99.5h7.3v-7.3h-7.3V99.5z M-1341.1,99.5h51v-7.3h-51
	V99.5z M-1341.1,49.1v7.3h51v-7.3H-1341.1z"/>
<path class="st1" d="M-1219.6,44c-17.2,0-31.1,14-31.1,31.1s13.9,31.1,31.1,31.1c17.2,0,31.2-14,31.2-31.1S-1202.4,44-1219.6,44z
	 M-1198,62.6h-9.2c-1-3.9-2.4-7.6-4.3-11.1C-1205.8,53.5-1201,57.5-1198,62.6z M-1219.6,50.3c2.6,3.7,4.6,7.9,5.9,12.3h-11.9
	C-1224.2,58.2-1222.2,54.1-1219.6,50.3z M-1243.7,81.3c-0.5-2-0.8-4.1-0.8-6.2c0-2.1,0.3-4.2,0.8-6.2h10.5c-0.2,2.1-0.4,4.1-0.4,6.2
	c0,2.1,0.2,4.2,0.4,6.2H-1243.7z M-1241.1,87.6h9.2c1,3.9,2.4,7.6,4.3,11.1C-1233.4,96.7-1238.1,92.7-1241.1,87.6z M-1231.9,62.6
	h-9.2c3-5.2,7.8-9.1,13.5-11.1C-1229.5,55-1230.9,58.8-1231.9,62.6z M-1219.6,99.9c-2.6-3.7-4.6-7.9-5.9-12.3h11.9
	C-1215,92-1217,96.2-1219.6,99.9z M-1212.3,81.3h-14.6c-0.3-2.1-0.5-4.1-0.5-6.2c0-2.1,0.2-4.2,0.5-6.2h14.6c0.3,2,0.5,4.1,0.5,6.2
	C-1211.8,77.2-1212,79.3-1212.3,81.3z M-1211.5,98.7c1.9-3.5,3.3-7.2,4.3-11.1h9.2C-1201,92.7-1205.8,96.7-1211.5,98.7z M-1206,81.3
	c0.2-2.1,0.4-4.1,0.4-6.2c0-2.1-0.2-4.2-0.4-6.2h10.5c0.5,2,0.8,4.1,0.8,6.2s-0.3,4.2-0.8,6.2H-1206z"/>
<path class="st0" d="M-1156.9,35.1h80v80h-80V35.1z"/>
<path class="st1" d="M-1116.9,43.1c-14.5,0-26.2,11.7-26.2,26.2v20.4c0,4.8,3.9,8.7,8.7,8.7h8.7V75.1h-11.6v-5.8
	c0-11.3,9.1-20.4,20.4-20.4s20.4,9.1,20.4,20.4v5.8h-11.6v23.3h11.6v2.9h-20.4v5.8h17.5c4.8,0,8.7-3.9,8.7-8.7V69.2
	C-1090.7,54.8-1102.4,43.1-1116.9,43.1z"/>
</svg>
