<?xml version="1.0" encoding="utf-8"?>
<!-- Generator: Adobe Illustrator 24.1.1, SVG Export Plug-In . SVG Version: 6.00 Build 0)  -->
<svg version="1.1" id="Capa_1" xmlns="http://www.w3.org/2000/svg" xmlns:xlink="http://www.w3.org/1999/xlink" x="0px" y="0px"
	 viewBox="0 0 80.3 80.3" style="enable-background:new 0 0 80.3 80.3;" xml:space="preserve">
<style type="text/css">
	.st0{fill:none;}
	.st1{fill:#FFFFFF;}
</style>
<path class="st0" d="M0.1,0.1h80v80h-80V0.1z"/>
<g>
	<path class="st1" d="M2196.6,104.2c-11.4,0-22.4,0-33.5,0c-0.1-1.1-0.1-2.1-0.1-3c0-28.2,0-56.5-0.1-84.7c0-2.7,0.6-3.5,3.4-3.5
		c9.2,0.2,18.3,0.1,27.5,0c2,0,3,0.6,3.9,2.4c6.5,13.4,13,26.8,19.6,40.2c0.4,0.9,0.9,1.7,1.6,3.1c0.6-1.2,1-2,1.4-2.8
		c6.6-13.6,13.2-27.1,19.9-40.6c0.4-0.9,1.5-2.1,2.3-2.1c10.6-0.1,21.2-0.1,32-0.1c0,30.4,0,60.7,0,91.1c-10.9,0-21.9,0-33.1,0
		c0-14.8,0-29.6,0-44.3c-0.3-0.1-0.5-0.2-0.8-0.2c-7.2,14.7-14.4,29.5-21.8,44.6c-7.4-15.1-14.6-29.8-21.8-44.5
		c-0.2,0-0.3,0.1-0.5,0.1C2196.6,74.4,2196.6,89.2,2196.6,104.2z"/>
	<path class="st1" d="M2714.3,13.2c29.7,0,59.3,0,89.1,0c0,4.7,0,9.5,0,14.5c-18.4,0-36.8,0-55.4,0c0,8,0,15.5,0,23.4
		c18.5,0,36.9,0,55.5,0c0,5.1,0,9.9,0,14.9c-18.5,0-36.9,0-55.5,0c0,7.8,0,15.4,0,23.3c18.5,0,36.9,0,55.5,0c0,5,0,9.8,0,14.8
		c-29.7,0-59.3,0-89.1,0C2714.3,73.9,2714.3,43.8,2714.3,13.2z"/>
	<path class="st1" d="M2599.6,51.2c0,5.1,0,9.8,0,14.8c-18.5,0-37,0-55.8,0c0,12.9,0,25.4,0,38.1c-11.3,0-22.3,0-33.5,0
		c0-30.3,0-60.4,0-90.9c29.7,0,59.3,0,89.1,0c0,4.7,0,9.4,0,14.5c-18.4,0-36.9,0-55.5,0c0,8,0,15.5,0,23.4
		C2562.5,51.2,2580.9,51.2,2599.6,51.2z"/>
	<path class="st1" d="M2397,101.6c-8.2-28.6-16.5-57.3-24.6-85.9c-0.6-2-1.5-2.6-3.5-2.6c-17.8,0.1-35.6,0.1-53.4,0
		c-2.7,0-3.7,0.8-4.4,3.3c-7.7,27-15.4,54-23.2,81c-0.6,2.2-1.2,4.4-1.8,6.8c11.3,0,22.3,0,33.4,0c1.2-4.2,2.6-8.4,3.6-12.6
		c0.5-1.9,1.3-2.3,3.2-2.3c8.8,0.1,17.6,0,26.4,0c2.4,0,4.8,0,7.2,0c1.3,4.6,2.5,8.9,3.9,13.2c0.2,0.7,1.2,1.8,1.8,1.8
		c10.6,0.1,21.2,0.1,32.1,0.1C2397.4,103.1,2397.2,102.3,2397,101.6z M2328.1,74.3c4.5-15.8,9-31.4,13.5-47c0.2,0,0.4,0,0.6,0
		c4.5,15.5,8.9,31,13.5,46.9C2346.2,74.3,2337.4,74.3,2328.1,74.3z"/>
	<path class="st1" d="M2701.3,83c0-12.8-7-21.4-19.6-24.5c0.7-0.2,1.3-0.4,2-0.5c12.5-2.9,20.1-15.5,16.9-27.9
		c-2.7-10.4-11.5-16.9-23.1-16.9c-20.9,0-41.7,0-62.6,0c-1,0-1.9,0-3,0c0,30.6,0,60.8,0,91c11.4,0,22.6,0,34,0c0-12.6,0-25,0-37.6
		c2.9,0,5.6-0.1,8.2,0c7.9,0.4,13.9,6.7,14,14.6c0.1,3.9,0,7.7,0,11.6c0,3.7,0,7.5,0,11.3c11.1,0,21.9,0,33.1,0c0-1.2,0-2.1,0-3.1
		C2701.3,95,2701.4,89,2701.3,83z M2661.6,48.4c-4.7,3.2-10,2.6-15.6,2.5c0-9.3,0-18.2,0-27.1c3.8,0,7.5-0.4,11,0.1
		c5.5,0.8,9.7,3.7,11,9.6C2669.3,39,2666.5,45.1,2661.6,48.4z"/>
	<path class="st1" d="M2497.8,34.7c-2.7-13.1-13-21.5-27.1-21.5c-19.8-0.1-39.6,0-59.3,0c-0.9,0-1.7,0.1-2.5,0.2
		c0,30.5,0,60.6,0,90.8c11.1,0,22.1,0,33.4,0c0-12.7,0-25.2,0-38c1.4,0,2.4,0,3.3,0c9.1,0,18.2,0.1,27.2-0.1
		C2488.9,65.8,2501,50.4,2497.8,34.7z M2453.6,50.5c-3,0.5-6.1,0.4-9.1,0.4c-0.5,0-1.6-1-1.6-1.5c-0.1-8.5-0.1-17-0.1-25.8
		c3.8,0,7.2-0.4,10.5,0.1c7.2,0.9,11.7,5.6,11.9,11.8C2465.5,42.7,2460.6,49.3,2453.6,50.5z"/>
</g>
<path class="st1" d="M40.3,0.3c-22.1,0-40,17.9-40,40s17.9,40,40,40s40-17.9,40-40S62.4,0.3,40.3,0.3z M51.5,25.2
	c0,0.5-0.4,0.9-0.9,0.9c-1.7,0-3,0-4,0.1c-0.8,0.1-1.3,0.2-1.7,0.5l0,0c-0.4,0.4-0.6,1-0.7,2.1c-0.1,1-0.1,2.5-0.1,4.4h6.5
	c0.5,0,0.9,0.4,0.9,0.9v7.5c0,0.5-0.4,0.9-0.9,0.9h-6.5v20h0c0,0.5-0.4,0.9-0.9,0.9l-7.5,0c-0.5,0-0.9-0.4-0.9-0.9l0-20h-5
	c-0.5,0-0.9-0.4-0.9-0.9v-7.5c0-0.5,0.4-0.9,0.9-0.9h5c0-3.7,0-6.5,0.2-8.7c0.3-2.5,0.8-4.2,1.9-5.4c1.1-1.2,2.7-1.8,5-2.1
	c2.2-0.3,5-0.3,8.8-0.3c0.5,0,0.9,0.4,0.9,0.9V25.2z"/>
</svg>
