<?xml version="1.0" encoding="utf-8"?>
<!-- Generator: Adobe Illustrator 24.1.1, SVG Export Plug-In . SVG Version: 6.00 Build 0)  -->
<svg version="1.1" id="Capa_1" xmlns="http://www.w3.org/2000/svg" xmlns:xlink="http://www.w3.org/1999/xlink" x="0px" y="0px"
	 viewBox="0 0 80.3 80.3" style="enable-background:new 0 0 80.3 80.3;" xml:space="preserve">
<style type="text/css">
	.st0{fill:none;}
	.st1{fill:#FFFFFF;}
</style>
<path class="st0" d="M0.1,0.1h80v80h-80V0.1z"/>
<path class="st0" d="M103.4,0.9h80v80h-80V0.9z"/>
<path class="st1" d="M7.4,36.8h7.3v-7.3H7.4V36.8z M7.4,51.3h7.3V44H7.4V51.3z M7.4,22.2h7.3v-7.3H7.4V22.2z M21.9,36.8h51v-7.3h-51
	V36.8z M21.9,51.3h51V44h-51V51.3z M7.4,65.3h7.3V58H7.4V65.3z M21.9,65.3h51V58h-51V65.3z M21.9,14.9v7.3h51v-7.3H21.9z"/>
<path class="st1" d="M143.4,9.8c-17.2,0-31.1,14-31.1,31.1s13.9,31.1,31.1,31.1c17.2,0,31.2-14,31.2-31.1S160.6,9.8,143.4,9.8z
	 M165,28.5h-9.2c-1-3.9-2.4-7.6-4.3-11.1C157.2,19.3,162,23.3,165,28.5z M143.4,16.1c2.6,3.7,4.6,7.9,5.9,12.3h-11.9
	C138.8,24,140.8,19.9,143.4,16.1z M119.3,47.1c-0.5-2-0.8-4.1-0.8-6.2c0-2.1,0.3-4.2,0.8-6.2h10.5c-0.2,2.1-0.4,4.1-0.4,6.2
	c0,2.1,0.2,4.2,0.4,6.2H119.3z M121.9,53.4h9.2c1,3.9,2.4,7.6,4.3,11.1C129.6,62.5,124.9,58.5,121.9,53.4z M131.1,28.5h-9.2
	c3-5.2,7.8-9.1,13.5-11.1C133.5,20.8,132.1,24.6,131.1,28.5z M143.4,65.7c-2.6-3.7-4.6-7.9-5.9-12.3h11.9
	C148,57.8,146,62,143.4,65.7z M150.7,47.1h-14.6c-0.3-2.1-0.5-4.1-0.5-6.2c0-2.1,0.2-4.2,0.5-6.2h14.6c0.3,2,0.5,4.1,0.5,6.2
	C151.2,43,151,45.1,150.7,47.1z M151.5,64.5c1.9-3.5,3.3-7.2,4.3-11.1h9.2C162,58.5,157.2,62.5,151.5,64.5z M157,47.1
	c0.2-2.1,0.4-4.1,0.4-6.2c0-2.1-0.2-4.2-0.4-6.2h10.5c0.5,2,0.8,4.1,0.8,6.2s-0.3,4.2-0.8,6.2H157z"/>
<path class="st0" d="M206.2,0.9h80v80h-80V0.9z"/>
<path class="st1" d="M246.2,8.9c-14.5,0-26.2,11.7-26.2,26.2v20.4c0,4.8,3.9,8.7,8.7,8.7h8.7V40.9h-11.6v-5.8
	c0-11.3,9.1-20.4,20.4-20.4s20.4,9.1,20.4,20.4v5.8h-11.6v23.3h11.6v2.9h-20.4v5.8h17.5c4.8,0,8.7-3.9,8.7-8.7V35.1
	C272.3,20.6,260.6,8.9,246.2,8.9z"/>
</svg>
