<?xml version="1.0" encoding="utf-8"?>
<!-- Generator: Adobe Illustrator 24.1.1, SVG Export Plug-In . SVG Version: 6.00 Build 0)  -->
<svg version="1.1" id="Capa_1" xmlns="http://www.w3.org/2000/svg" xmlns:xlink="http://www.w3.org/1999/xlink" x="0px" y="0px"
	 viewBox="0 0 80.3 80.3" style="enable-background:new 0 0 80.3 80.3;" xml:space="preserve">
<style type="text/css">
	.st0{fill:none;}
	.st1{fill:#FFFFFF;}
</style>
<path class="st0" d="M0.1,0.1h80v80h-80V0.1z"/>
<g>
	<path class="st1" d="M50.7,22.4H29.4c-1.8,0-3.5,0.7-4.7,1.9c-1.2,1.2-1.9,2.8-1.9,4.7v21.4c0,1.8,0.7,3.5,1.9,4.7
		c1.2,1.2,2.8,1.9,4.7,1.9h21.4c1.8,0,3.5-0.7,4.7-1.9s1.9-2.8,1.9-4.7V29c0-1.8-0.7-3.5-1.9-4.7C54.2,23.1,52.5,22.4,50.7,22.4z
		 M48.8,48.5c-2.2,2.2-5.3,3.6-8.8,3.6s-6.5-1.4-8.8-3.6c-2.2-2.2-3.6-5.3-3.6-8.8c0-3.4,1.4-6.5,3.6-8.8c2.2-2.2,5.3-3.6,8.8-3.6
		s6.5,1.4,8.8,3.6c2.2,2.2,3.6,5.3,3.6,8.8C52.4,43.1,51.1,46.2,48.8,48.5z M53.9,28.7C53.9,28.7,53.9,28.7,53.9,28.7
		c-0.5,0.5-1.1,0.8-1.8,0.8c-0.7,0-1.3-0.3-1.8-0.7l0,0c-0.5-0.5-0.7-1.1-0.7-1.8s0.3-1.3,0.7-1.8v0c0.5-0.5,1.1-0.7,1.8-0.7
		c0,0,0,0,0,0h0c0,0,0,0,0,0c0.7,0,1.3,0.3,1.8,0.7c0.5,0.5,0.7,1.1,0.7,1.8S54.4,28.2,53.9,28.7z"/>
	<path class="st1" d="M40,32.1c-2.1,0-4,0.9-5.4,2.2c-1.4,1.4-2.2,3.3-2.2,5.4c0,2.1,0.9,4,2.2,5.4c1.4,1.4,3.3,2.2,5.4,2.2
		c2.1,0,4-0.9,5.4-2.2s2.2-3.3,2.2-5.4c0-2.1-0.9-4-2.2-5.4C44.1,32.9,42.2,32.1,40,32.1z"/>
	<path class="st1" d="M40.3,0.3c-22.1,0-40,17.9-40,40s17.9,40,40,40s40-17.9,40-40S62.4,0.3,40.3,0.3z M62.3,52.4
		c0,2.6-1.1,5-2.8,6.8c-1.7,1.7-4.1,2.8-6.8,2.8H27.4c-2.6,0-5-1.1-6.8-2.8c-1.7-1.7-2.8-4.1-2.8-6.8V27c0-2.6,1.1-5,2.8-6.8
		c1.7-1.7,4.1-2.8,6.8-2.8h25.3c2.6,0,5,1.1,6.8,2.8c1.7,1.7,2.8,4.1,2.8,6.8V52.4z"/>
</g>
</svg>
