<?xml version="1.0" encoding="utf-8"?>
<!-- Generator: Adobe Illustrator 24.1.1, SVG Export Plug-In . SVG Version: 6.00 Build 0)  -->
<svg version="1.1" id="Capa_1" xmlns="http://www.w3.org/2000/svg" xmlns:xlink="http://www.w3.org/1999/xlink" x="0px" y="0px"
	 viewBox="0 0 80.3 80.3" style="enable-background:new 0 0 80.3 80.3;" xml:space="preserve">
<style type="text/css">
	.st0{fill:#FFFFFF;}
	.st1{fill:none;}
</style>
<path class="st0" d="M40.1,0.1c-22.1,0-40,17.9-40,40s17.9,40,40,40s40-17.9,40-40S62.2,0.1,40.1,0.1z M28.5,63H19V32.4h9.5V63z
	 M23.7,28.3c-3,0-5.5-2.5-5.5-5.6c0-3,2.5-5.5,5.5-5.5c3,0,5.5,2.5,5.5,5.5C29.2,25.8,26.8,28.3,23.7,28.3z M64,63L64,63h-9.5V48.1
	c0-3.5-0.1-8.1-4.9-8.1c-4.9,0-5.7,3.9-5.7,7.8V63h-9.5V32.4h9.1v4.2h0.1c1.3-2.4,4.4-4.9,9-4.9C62.3,31.7,64,38,64,46.2V63z"/>
<path class="st1" d="M0.1,0.1h80v80h-80V0.1z"/>
</svg>
