<?xml version="1.0" encoding="utf-8"?>
<!-- Generator: Adobe Illustrator 24.1.1, SVG Export Plug-In . SVG Version: 6.00 Build 0)  -->
<svg version="1.1" id="Capa_1" xmlns="http://www.w3.org/2000/svg" xmlns:xlink="http://www.w3.org/1999/xlink" x="0px" y="0px"
	 viewBox="0 0 910 217" style="enable-background:new 0 0 910 217;" xml:space="preserve">
<style type="text/css">
	.st0{fill:#FFFFFF;}
</style>
<g>
	<path class="st0" d="M103.6,21c50.5,0,91.3,41.1,91.2,91.6c-0.1,50.4-41.1,91.3-91.4,91.1c-50.4-0.1-91.1-41-91.1-91.4
		C12.4,61.8,53.3,21,103.6,21z M20.9,112.4c0,45.7,37,82.7,82.6,82.8c45.7,0.1,82.9-37,82.8-82.8c0-45.7-36.9-82.7-82.6-82.8
		C58,29.4,20.9,66.6,20.9,112.4z"/>
	<path class="st0" d="M99.2,157.7c0-8.3-0.1-16.4,0.1-24.5c0.1-2.6-0.7-3.4-3.3-3.4c-12.7,0.1-25.4-0.2-38,0.1
		c-9.7,0.3-16.5-8.1-14.3-17.5c2.8-11.5,8.3-21.2,17.1-29c2.9-2.6,6.4-3.7,10.2-3.6c1.5,0.1,2.2-0.3,2.8-1.7c1.8-4.1,5-6.7,9.2-8.1
		c13.5-4.5,27-4.6,40.5-0.2c4.3,1.4,7.6,4.1,9.6,8.1c0.7,1.3,1.4,1.8,2.9,1.7c4-0.4,7.4,1.1,10.3,3.8c9.2,8.3,15.2,18.4,17.3,30.6
		c1.4,8.2-4.5,15.7-12.9,15.7c-12.9,0.1-25.7,0-38.6,0.1c-1.3,0-2.6,0.1-4.2,0.2c0,9.3,0,18.3,0,27.6
		C105.1,157.7,102.3,157.7,99.2,157.7z M125.9,84.7c-0.1-3.5-1.7-5.2-4.3-6.1c-11.9-4-23.8-4.1-35.7-0.1c-4.5,1.5-5.8,5.1-3.4,9.1
		c6,10.3,12,20.7,18,31c2,3.5,4.3,3.5,6.3,0c6-10.3,12-20.6,18-31C125.3,86.6,125.6,85.3,125.9,84.7z M135.3,121.2
		C135.3,121.2,135.3,121.2,135.3,121.2c4.8,0.1,9.5,0.1,14.3,0.1c4.1,0,6.1-2.3,5.3-6.2c-2-9.9-6.8-18.3-14.4-24.9
		c-2.9-2.5-5.9-2-7.8,1.4c-4.8,8.3-9.6,16.6-14.4,25c-1.8,3.2-0.9,4.7,2.7,4.8C125.8,121.2,130.5,121.2,135.3,121.2z M71.8,121.2
		C71.8,121.2,71.8,121.2,71.8,121.2c4.9-0.1,9.9,0,14.8-0.1c2.9,0,4-1.6,2.7-4c-5-8.8-10-17.6-15.1-26.4c-1.6-2.7-4.6-3.1-7-1.1
		c-8,6.7-13,15.2-14.9,25.5c-0.7,3.8,1.3,6,5.2,6C62.2,121.3,67,121.2,71.8,121.2z"/>
</g>
<g>
	<path class="st0" d="M282.3,157.9c-11.4,0-22.4,0-33.5,0c-0.1-1.1-0.1-2.1-0.1-3c0-28.2,0-56.5-0.1-84.7c0-2.7,0.6-3.5,3.4-3.5
		c9.2,0.2,18.3,0.1,27.5,0c2,0,3,0.6,3.9,2.4c6.5,13.4,13,26.8,19.6,40.2c0.4,0.9,0.9,1.7,1.6,3.1c0.6-1.2,1-2,1.4-2.8
		c6.6-13.6,13.2-27.1,19.9-40.6c0.4-0.9,1.5-2.1,2.3-2.1c10.6-0.1,21.2-0.1,32-0.1c0,30.4,0,60.7,0,91.1c-10.9,0-21.9,0-33.1,0
		c0-14.8,0-29.6,0-44.3c-0.3-0.1-0.5-0.2-0.8-0.2c-7.2,14.7-14.4,29.5-21.8,44.6c-7.4-15.1-14.6-29.8-21.8-44.5
		c-0.2,0-0.3,0.1-0.5,0.1C282.3,128.1,282.3,142.9,282.3,157.9z"/>
	<path class="st0" d="M800,66.9c29.7,0,59.3,0,89.1,0c0,4.7,0,9.5,0,14.5c-18.4,0-36.8,0-55.4,0c0,8,0,15.5,0,23.4
		c18.5,0,36.9,0,55.5,0c0,5.1,0,9.9,0,14.9c-18.5,0-36.9,0-55.5,0c0,7.8,0,15.4,0,23.3c18.5,0,36.9,0,55.5,0c0,5,0,9.8,0,14.8
		c-29.7,0-59.3,0-89.1,0C800,127.6,800,97.5,800,66.9z"/>
	<path class="st0" d="M685.3,104.9c0,5.1,0,9.8,0,14.8c-18.5,0-37,0-55.8,0c0,12.9,0,25.4,0,38.1c-11.3,0-22.3,0-33.5,0
		c0-30.3,0-60.4,0-90.9c29.7,0,59.3,0,89.1,0c0,4.7,0,9.4,0,14.5c-18.4,0-36.9,0-55.5,0c0,8,0,15.5,0,23.4
		C648.2,104.9,666.6,104.9,685.3,104.9z"/>
	<path class="st0" d="M482.7,155.2c-8.2-28.6-16.5-57.3-24.6-85.9c-0.6-2-1.5-2.6-3.5-2.6c-17.8,0.1-35.6,0.1-53.4,0
		c-2.7,0-3.7,0.8-4.4,3.3c-7.7,27-15.4,54-23.2,81c-0.6,2.2-1.2,4.4-1.8,6.8c11.3,0,22.3,0,33.4,0c1.2-4.2,2.6-8.4,3.6-12.6
		c0.5-1.9,1.3-2.3,3.2-2.3c8.8,0.1,17.6,0,26.4,0c2.4,0,4.8,0,7.2,0c1.3,4.6,2.5,8.9,3.9,13.2c0.2,0.7,1.2,1.8,1.8,1.8
		c10.6,0.1,21.2,0.1,32.1,0.1C483.1,156.8,482.9,156,482.7,155.2z M413.7,128c4.5-15.8,9-31.4,13.5-47c0.2,0,0.4,0,0.6,0
		c4.5,15.5,8.9,31,13.5,46.9C431.9,128,423.1,128,413.7,128z"/>
	<path class="st0" d="M787,136.7c0-12.8-7-21.4-19.6-24.5c0.7-0.2,1.3-0.4,2-0.5c12.5-2.9,20.1-15.5,16.9-27.9
		c-2.7-10.4-11.5-16.9-23.1-16.9c-20.9,0-41.7,0-62.6,0c-1,0-1.9,0-3,0c0,30.6,0,60.8,0,91c11.4,0,22.6,0,34,0c0-12.6,0-25,0-37.6
		c2.9,0,5.6-0.1,8.2,0c7.9,0.4,13.9,6.7,14,14.6c0.1,3.9,0,7.7,0,11.6c0,3.7,0,7.5,0,11.3c11.1,0,21.9,0,33.1,0c0-1.2,0-2.1,0-3.1
		C787,148.7,787,142.7,787,136.7z M747.3,102.1c-4.7,3.2-10,2.6-15.6,2.5c0-9.3,0-18.2,0-27.1c3.8,0,7.5-0.4,11,0.1
		c5.5,0.8,9.7,3.7,11,9.6C755,92.7,752.2,98.8,747.3,102.1z"/>
	<path class="st0" d="M583.5,88.4c-2.7-13.1-13-21.5-27.1-21.5c-19.8-0.1-39.6,0-59.3,0c-0.9,0-1.7,0.1-2.5,0.2
		c0,30.5,0,60.6,0,90.8c11.1,0,22.1,0,33.4,0c0-12.7,0-25.2,0-38c1.4,0,2.4,0,3.3,0c9.1,0,18.2,0.1,27.2-0.1
		C574.6,119.4,586.7,104.1,583.5,88.4z M539.3,104.2c-3,0.5-6.1,0.4-9.1,0.4c-0.5,0-1.6-1-1.6-1.5c-0.1-8.5-0.1-17-0.1-25.8
		c3.8,0,7.2-0.4,10.5,0.1c7.2,0.9,11.7,5.6,11.9,11.8C551.2,96.4,546.3,102.9,539.3,104.2z"/>
</g>
</svg>
