<?xml version="1.0" encoding="utf-8"?>
<!-- Generator: Adobe Illustrator 24.1.1, SVG Export Plug-In . SVG Version: 6.00 Build 0)  -->
<svg version="1.1" id="Capa_1" xmlns="http://www.w3.org/2000/svg" xmlns:xlink="http://www.w3.org/1999/xlink" x="0px" y="0px"
	 viewBox="0 0 80.3 80.3" style="enable-background:new 0 0 80.3 80.3;" xml:space="preserve">
<style type="text/css">
	.st0{fill:none;}
	.st1{fill:#FFFFFF;}
</style>
<path class="st0" d="M0.1,0.1h80v80h-80V0.1z"/>
<path class="st1" d="M64.3,19.6H16.1c-3.1,0-5.6,2.5-5.6,5.6v33.4c0,3.1,2.5,5.6,5.6,5.6h48.3c3.1,0,5.6-2.5,5.6-5.6V25.1
	C69.9,22.1,67.4,19.6,64.3,19.6z M62.5,24.1c0.2,0,0.5,0,0.7,0.1L40.2,44.1L17.3,24.3c0.2-0.1,0.4-0.1,0.7-0.1H62.5z M64.3,60.1
	H16.1c-1,0-1.9-0.8-1.9-1.8V28.1L39,48.9c0.3,0.3,0.8,0.4,1.2,0.4c0.4,0,0.9-0.1,1.2-0.4l24.8-20.8v30.2
	C66.2,59.3,65.4,60.1,64.3,60.1z"/>
</svg>
