<?xml version="1.0" encoding="utf-8"?>
<!-- Generator: Adobe Illustrator 24.1.1, SVG Export Plug-In . SVG Version: 6.00 Build 0)  -->
<svg version="1.1" id="Capa_1" xmlns="http://www.w3.org/2000/svg" xmlns:xlink="http://www.w3.org/1999/xlink" x="0px" y="0px"
	 viewBox="0 0 80.3 80.3" style="enable-background:new 0 0 80.3 80.3;" xml:space="preserve">
<style type="text/css">
	.st0{fill:none;}
	.st1{fill:#FFFFFF;}
</style>
<path class="st0" d="M0.1,0.1h80v80h-80V0.1z"/>
<g>
	<g>
		<path class="st1" d="M41.3,19.4c10.8,0,19.6,8.8,19.6,19.5c0,0.6,0.5,1.1,1.2,1.1s1.2-0.5,1.2-1.1c0-12.1-9.8-21.8-21.9-21.8
			c-0.6,0-1.2,0.5-1.2,1.1C40.1,18.9,40.6,19.4,41.3,19.4z"/>
		<path class="st1" d="M41.3,26.3C48.3,26.3,54,32,54,39c0,0.6,0.5,1.2,1.2,1.2c0.6,0,1.2-0.5,1.2-1.2c0-8.3-6.8-15-15.1-15
			c-0.6,0-1.2,0.5-1.2,1.2C40.1,25.8,40.6,26.3,41.3,26.3z"/>
		<path class="st1" d="M41.3,33.2c3.2,0,5.9,2.6,5.9,5.8c0,0.6,0.5,1.2,1.2,1.2s1.2-0.5,1.2-1.2c0-4.5-3.7-8.1-8.2-8.1
			c-0.6,0-1.2,0.5-1.2,1.2C40.1,32.6,40.6,33.2,41.3,33.2z"/>
	</g>
	<path class="st1" d="M60,53.1l-8.9-5.9c-1.1-0.7-2.6-0.5-3.5,0.6l-2.6,3.3c-0.3,0.4-0.9,0.6-1.4,0.3c0,0-5.3-3.4-9.4-7.5
		s-5.2-7.1-5.2-7.1c-0.3-0.5-0.1-1.1,0.3-1.4l3.3-2.6c1.1-0.8,1.3-2.3,0.6-3.5l-5.9-8.9c-0.8-1.1-2.3-1.5-3.5-0.8l-3.7,2.2
		c-1.2,0.7-2,1.8-2.4,3.1c-1.3,4.9-2.3,15.1,10.1,27.5C37.7,62.3,47,63.1,52,63.1c1.2,0,2.3-0.1,3.4-0.4c1.3-0.4,2.4-1.2,3.1-2.4
		l2.2-3.7C61.5,55.4,61.2,53.9,60,53.1z"/>
</g>
</svg>
