<?xml version="1.0" encoding="utf-8"?>
<!-- Generator: Adobe Illustrator 24.1.1, SVG Export Plug-In . SVG Version: 6.00 Build 0)  -->
<svg version="1.1" id="Capa_1" xmlns="http://www.w3.org/2000/svg" xmlns:xlink="http://www.w3.org/1999/xlink" x="0px" y="0px"
	 viewBox="0 0 80.3 80.3" style="enable-background:new 0 0 80.3 80.3;" xml:space="preserve">
<style type="text/css">
	.st0{fill:none;}
	.st1{fill:#FFFFFF;}
</style>
<path class="st0" d="M0.1,0.1h80v80h-80V0.1z"/>
<path class="st1" d="M40.1,9C22.9,9,9,22.9,9,40.1s13.9,31.1,31.1,31.1c17.2,0,31.2-14,31.2-31.1S57.3,9,40.1,9z M61.7,27.7h-9.2
	c-1-3.9-2.4-7.6-4.3-11.1C53.9,18.5,58.7,22.5,61.7,27.7z M40.1,15.3c2.6,3.7,4.6,7.9,5.9,12.3H34.2C35.5,23.2,37.5,19.1,40.1,15.3z
	 M16,46.4c-0.5-2-0.8-4.1-0.8-6.2s0.3-4.2,0.8-6.2h10.5c-0.2,2.1-0.4,4.1-0.4,6.2s0.2,4.2,0.4,6.2H16z M18.6,52.6h9.2
	c1,3.9,2.4,7.6,4.3,11.1C26.3,61.7,21.6,57.8,18.6,52.6z M27.8,27.7h-9.2c3-5.2,7.8-9.1,13.5-11.1C30.2,20,28.8,23.8,27.8,27.7z
	 M40.1,64.9c-2.6-3.7-4.6-7.9-5.9-12.3h11.9C44.7,57,42.7,61.2,40.1,64.9z M47.4,46.4H32.8c-0.3-2.1-0.5-4.1-0.5-6.2
	s0.2-4.2,0.5-6.2h14.6c0.3,2,0.5,4.1,0.5,6.2S47.7,44.3,47.4,46.4z M48.2,63.7c1.9-3.5,3.3-7.2,4.3-11.1h9.2
	C58.7,57.7,53.9,61.7,48.2,63.7z M53.7,46.4c0.2-2.1,0.4-4.1,0.4-6.2S54,36,53.7,33.9h10.5c0.5,2,0.8,4.1,0.8,6.2s-0.3,4.2-0.8,6.2
	H53.7z"/>
<path class="st0" d="M102.8,0.1h80v80h-80V0.1z"/>
<path class="st1" d="M142.8,8.1c-14.5,0-26.2,11.7-26.2,26.2v20.4c0,4.8,3.9,8.7,8.7,8.7h8.7V40.1h-11.6v-5.8
	c0-11.3,9.1-20.4,20.4-20.4s20.4,9.1,20.4,20.4v5.8h-11.6v23.3h11.6v2.9h-20.4v5.8h17.5c4.8,0,8.7-3.9,8.7-8.7V34.3
	C169,19.8,157.3,8.1,142.8,8.1z"/>
</svg>
