<?xml version="1.0" encoding="utf-8"?>
<!-- Generator: Adobe Illustrator 24.1.1, SVG Export Plug-In . SVG Version: 6.00 Build 0)  -->
<svg version="1.1" id="Capa_1" xmlns="http://www.w3.org/2000/svg" xmlns:xlink="http://www.w3.org/1999/xlink" x="0px" y="0px"
	 viewBox="0 0 80.3 80.3" style="enable-background:new 0 0 80.3 80.3;" xml:space="preserve">
<style type="text/css">
	.st0{fill:none;}
	.st1{fill:#FFFFFF;}
</style>
<path class="st0" d="M0.1,0.1h80v80h-80V0.1z"/>
<g>
	<path class="st1" d="M25.6,60.1c-3.7,0-6.7,3-6.7,6.7c0,3.7,3,6.7,6.7,6.7c3.7,0,6.7-3,6.7-6.7C32.3,63.1,29.3,60.1,25.6,60.1z"/>
	<path class="st1" d="M29.3,43.5h25c2.5,0,4.7-1.4,5.9-3.4l12.5-22.5l2.2-3.5c0.1-0.2,0-0.5-0.3-0.5h-7.2h0h0h0H19.6h0l-3.2-6.7h-11
		v6.7h6.7l12.1,25.3l-4.5,8.2c-0.5,0.9-0.8,2-0.8,3.2c0,3.7,3,6.7,6.7,6.7h40.3v-6.7H27c-0.4,0-0.8-0.4-0.8-0.8l0.1-0.4L29.3,43.5z
		 M22.7,20.1h40.8l-9.3,16.7H30.7l-0.4-0.9L22.7,20.1z"/>
	<path class="st1" d="M59.1,60.1c-3.7,0-6.7,3-6.7,6.7c0,3.7,3,6.7,6.7,6.7s6.7-3,6.7-6.7C65.8,63.1,62.8,60.1,59.1,60.1z"/>
</g>
</svg>
