<?xml version="1.0" encoding="utf-8"?>
<!-- Generator: Adobe Illustrator 24.1.1, SVG Export Plug-In . SVG Version: 6.00 Build 0)  -->
<svg version="1.1" id="Capa_1" xmlns="http://www.w3.org/2000/svg" xmlns:xlink="http://www.w3.org/1999/xlink" x="0px" y="0px"
	 viewBox="0 0 80.3 80.3" style="enable-background:new 0 0 80.3 80.3;" xml:space="preserve">
<style type="text/css">
	.st0{fill:none;}
	.st1{fill:#2E2E2E;}
</style>
<path class="st0" d="M0.1-0.1h80v80h-80V-0.1z"/>
<g>
	<path class="st1" d="M40.1,14.5l6.6,13.4c1.1,2.1,3.1,3.6,5.4,4L67,34L56.3,44.4c-1.7,1.7-2.5,4.1-2.1,6.4l2.5,14.7l-13.2-7
		c-1-0.5-2.2-0.8-3.4-0.8s-2.3,0.3-3.4,0.8l-13.2,7L26,50.8c0.4-2.3-0.4-4.7-2.1-6.4L13.3,34l14.8-2.1c2.4-0.3,4.4-1.8,5.4-4
		L40.1,14.5 M40.1,9.5c-1.2,0-2.3,0.6-2.9,1.8l-7.3,14.8c-0.5,1-1.4,1.6-2.4,1.8l-16.3,2.4c-2.7,0.4-3.7,3.6-1.8,5.5l11.8,11.5
		c0.8,0.7,1.1,1.8,0.9,2.9l-2.8,16.3c-0.4,2.1,1.3,3.8,3.2,3.8c0.5,0,1-0.1,1.5-0.4l14.6-7.7c0.5-0.2,1-0.4,1.5-0.4s1,0.1,1.5,0.4
		l14.6,7.7c0.5,0.3,1,0.4,1.5,0.4c1.9,0,3.5-1.7,3.2-3.8l-2.8-16.3c-0.2-1,0.2-2.1,0.9-2.9l11.8-11.5c1.9-1.9,0.9-5.1-1.8-5.5
		l-16.3-2.4c-1.1-0.2-2-0.8-2.4-1.8L43,11.3C42.4,10.1,41.3,9.5,40.1,9.5L40.1,9.5z"/>
</g>
</svg>
