<?xml version="1.0" encoding="utf-8"?>
<!-- Generator: Adobe Illustrator 24.2.1, SVG Export Plug-In . SVG Version: 6.00 Build 0)  -->
<svg version="1.1" id="Layer_1" xmlns="http://www.w3.org/2000/svg" xmlns:xlink="http://www.w3.org/1999/xlink" x="0px" y="0px"
	 viewBox="0 0 220 220" style="enable-background:new 0 0 220 220;" xml:space="preserve">
<style type="text/css">
	.st0{fill:#DB422E;}
</style>
<g>
	<path class="st0" d="M114.8,16.7l27.1,54.9c0.8,1.6,2.3,2.7,4,2.9l60.5,8.8c4.4,0.6,6.1,6,3,9.1L165.6,135c-1.3,1.2-1.8,3-1.5,4.7
		l10.3,60.3c0.7,4.4-3.8,7.7-7.7,5.6l-54.1-28.5c-1.6-0.8-3.4-0.8-5,0l-54.1,28.5c-3.9,2.1-8.5-1.3-7.7-5.6L56,139.8
		c0.3-1.7-0.3-3.5-1.5-4.7L10.6,92.3c-3.2-3.1-1.4-8.5,3-9.1l60.5-8.8c1.7-0.3,3.2-1.3,4-2.9l27.1-54.9
		C107.2,12.7,112.8,12.7,114.8,16.7z"/>
</g>
</svg>
