<?xml version="1.0" encoding="utf-8"?>
<!-- Generator: Adobe Illustrator 24.1.1, SVG Export Plug-In . SVG Version: 6.00 Build 0)  -->
<svg version="1.1" id="Capa_1" xmlns="http://www.w3.org/2000/svg" xmlns:xlink="http://www.w3.org/1999/xlink" x="0px" y="0px"
	 viewBox="0 0 80.4 80.4" style="enable-background:new 0 0 80.4 80.4;" xml:space="preserve">
<style type="text/css">
	.st0{fill:none;}
	.st1{fill:#FFFFFF;}
</style>
<path class="st0" d="M0.1,0.1h80.2v80.2H0.1V0.1z"/>
<path class="st1" d="M43.6,10.1c-16.6,0-30.1,13.5-30.1,30.1h-10l13,13l0.2,0.5l13.5-13.5h-10c0-12.9,10.5-23.4,23.4-23.4
	s23.4,10.5,23.4,23.4S56.5,63.6,43.6,63.6c-6.4,0-12.3-2.6-16.5-6.9l-4.7,4.7c5.4,5.4,12.9,8.8,21.2,8.8c16.6,0,30.1-13.5,30.1-30.1
	S60.2,10.1,43.6,10.1z M40.2,26.9v16.7L54.5,52l2.4-4l-11.7-6.9V26.9H40.2z"/>
</svg>
