<?xml version="1.0" encoding="utf-8"?>
<!-- Generator: Adobe Illustrator 24.1.1, SVG Export Plug-In . SVG Version: 6.00 Build 0)  -->
<svg version="1.1" id="Capa_1" xmlns="http://www.w3.org/2000/svg" xmlns:xlink="http://www.w3.org/1999/xlink" x="0px" y="0px"
	 viewBox="0 0 80.3 80.3" style="enable-background:new 0 0 80.3 80.3;" xml:space="preserve">
<style type="text/css">
	.st0{fill:none;}
	.st1{fill:#FFFFFF;}
</style>
<path class="st0" d="M0.1,0.1h80v80h-80V0.1z"/>
<g>
	<path class="st1" d="M28.4,59.6c3.5,2.1,7.5,3.2,11.6,3.2c12.5,0,22.7-10.2,22.7-22.7c0-12.5-10.3-22.7-22.7-22.7
		c-12.4,0-22.6,10.2-22.6,22.7c0,4.2,1.1,8.2,3.2,11.7l-3.2,11L28.4,59.6z M21.5,40.1c0-10.4,8.3-18.8,18.5-18.8
		c10.3,0,18.7,8.4,18.7,18.8c0,10.4-8.4,18.8-18.7,18.8c-3.5,0-7-1-10-2.9l-0.5-0.3l-6.9,2.1l2-7l-0.3-0.5
		C22.5,47.3,21.5,43.8,21.5,40.1z"/>
	<path class="st1" d="M51.1,44.8l-4.2-2.8c-0.5-0.4-1.2-0.2-1.6,0.3L44,43.8c-0.2,0.2-0.4,0.3-0.7,0.1c0,0-2.5-1.6-4.5-3.5
		c-1.9-1.9-2.4-3.4-2.4-3.4c-0.1-0.2-0.1-0.5,0.1-0.7l1.6-1.2c0.5-0.4,0.6-1.1,0.3-1.6l-2.8-4.2c-0.4-0.5-1.1-0.7-1.6-0.4L32.2,30
		c-0.6,0.3-1,0.9-1.1,1.5c-0.6,2.3-1.1,7.2,4.8,13c4.7,4.7,9.1,5.1,11.5,5.1c0.5,0,1.1-0.1,1.6-0.2c0.6-0.2,1.1-0.6,1.5-1.1l1.1-1.8
		C51.8,45.8,51.6,45.1,51.1,44.8z"/>
</g>
</svg>
