<?xml version="1.0" encoding="utf-8"?>
<!-- Generator: Adobe Illustrator 24.2.0, SVG Export Plug-In . SVG Version: 6.00 Build 0)  -->
<svg version="1.1" id="Capa_1" xmlns="http://www.w3.org/2000/svg" xmlns:xlink="http://www.w3.org/1999/xlink" x="0px" y="0px"
	 viewBox="0 0 1118 251" style="enable-background:new 0 0 1118 251;" xml:space="preserve">
<style type="text/css">
	.st0{fill:#DB422E;}
</style>
<g>
	<path class="st0" d="M126.5,12.1c62.8,0,113.7,51.1,113.5,113.9s-51.1,113.6-113.7,113.4c-62.7-0.2-113.4-51-113.3-113.8
		C13.1,62.9,63.9,12,126.5,12.1z M23.6,125.8c0,56.9,46,103,102.8,103c56.9,0.1,103.1-46.1,103.1-103.1c0-56.9-46-102.9-102.8-103.1
		C69.8,22.5,23.5,68.8,23.6,125.8z"/>
	<path class="st0" d="M121.1,182.2c0-10.3-0.1-20.4,0.1-30.5c0.1-3.2-0.8-4.2-4.1-4.2c-15.8,0.1-31.6-0.3-47.3,0.2
		c-12.1,0.4-20.6-10.1-17.7-21.8c3.5-14.3,10.3-26.4,21.3-36.1c3.6-3.2,7.9-4.6,12.7-4.4c1.9,0.1,2.8-0.3,3.5-2.1
		c2.2-5.2,6.2-8.4,11.5-10.1c16.8-5.6,33.6-5.7,50.4-0.2c5.4,1.8,9.4,5.1,11.9,10.1c0.8,1.7,1.7,2.2,3.6,2.1c5-0.5,9.2,1.4,12.8,4.7
		c11.4,10.3,18.9,22.8,21.6,38.1c1.8,10.3-5.6,19.5-16,19.6c-16,0.2-32,0.1-48,0.1c-1.6,0-3.3,0.1-5.2,0.2c0,11.5,0,22.8,0,34.4
		C128.3,182.2,124.9,182.2,121.1,182.2z M154.2,91.3c-0.2-4.3-2.1-6.5-5.4-7.6c-14.8-5-29.6-5.1-44.4-0.1c-5.5,1.9-7.2,6.3-4.3,11.4
		c7.4,12.9,14.9,25.7,22.3,38.5c2.5,4.4,5.3,4.4,7.9,0c7.5-12.8,14.9-25.7,22.4-38.5C153.5,93.6,153.9,92.1,154.2,91.3z
		 M165.9,136.7C165.9,136.7,165.9,136.8,165.9,136.7c5.9,0.1,11.9,0.1,17.8,0.1c5,0,7.6-2.9,6.6-7.8c-2.4-12.4-8.4-22.7-17.9-31
		c-3.6-3.2-7.3-2.5-9.7,1.7c-6,10.3-11.9,20.7-17.9,31.1c-2.3,3.9-1.2,5.9,3.4,5.9C154.1,136.8,160,136.7,165.9,136.7z M86.9,136.8
		C86.9,136.8,86.9,136.7,86.9,136.8c6.1-0.1,12.3,0,18.4-0.1c3.6-0.1,5-2,3.3-4.9c-6.2-11-12.4-22-18.8-32.9
		c-1.9-3.3-5.7-3.9-8.7-1.4c-9.9,8.4-16.2,19-18.5,31.7c-0.9,4.8,1.6,7.5,6.5,7.5C75.1,136.8,81,136.8,86.9,136.8z"/>
</g>
<g>
	<path class="st0" d="M348.9,182.4c-14.2,0-27.8,0-41.7,0c-0.1-1.4-0.2-2.6-0.2-3.8c0-35.1,0-70.3-0.1-105.4c0-3.4,0.8-4.4,4.2-4.3
		c11.4,0.2,22.8,0.1,34.2,0c2.5,0,3.8,0.7,4.8,3c8,16.7,16.2,33.4,24.4,50c0.5,1.1,1.1,2.2,2,3.8c0.8-1.4,1.3-2.4,1.8-3.5
		c8.2-16.9,16.4-33.7,24.8-50.6c0.5-1.1,1.9-2.6,2.9-2.6c13.2-0.2,26.4-0.1,39.9-0.1c0,37.9,0,75.5,0,113.3c-13.6,0-27.2,0-41.2,0
		c0-18.4,0-36.8,0-55.2c-0.3-0.1-0.7-0.2-1-0.3c-9,18.3-17.9,36.7-27.1,55.5c-9.2-18.8-18.1-37.1-27.1-55.4c-0.2,0-0.4,0.1-0.6,0.1
		C348.9,145.4,348.9,163.7,348.9,182.4z"/>
	<path class="st0" d="M993.1,69.2c37,0,73.8,0,110.8,0c0,5.9,0,11.8,0,18.1c-22.8,0-45.8,0-69,0c0,9.9,0,19.3,0,29.2
		c23,0,45.9,0,69,0c0,6.3,0,12.3,0,18.6c-23,0-45.9,0-69,0c0,9.8,0,19.2,0,28.9c23,0,45.9,0,69,0c0,6.3,0,12.2,0,18.4
		c-36.9,0-73.8,0-110.9,0C993.1,144.7,993.1,107.2,993.1,69.2z"/>
	<path class="st0" d="M850.3,116.5c0,6.4,0,12.2,0,18.4c-23,0-46,0-69.4,0c0,16,0,31.6,0,47.4c-14.1,0-27.8,0-41.7,0
		c0-37.7,0-75.2,0-113.1c36.9,0,73.8,0,110.9,0c0,5.8,0,11.7,0,18c-22.9,0-45.9,0-69,0c0,9.9,0,19.3,0,29.2
		C804.2,116.5,827.1,116.5,850.3,116.5z"/>
	<path class="st0" d="M598.2,179.1c-10.2-35.6-20.5-71.3-30.6-106.9c-0.7-2.5-1.8-3.3-4.4-3.3c-22.2,0.1-44.3,0.1-66.5,0
		c-3.3,0-4.6,1.1-5.5,4.2c-9.5,33.6-19.2,67.2-28.8,100.8c-0.8,2.7-1.5,5.5-2.3,8.5c14.1,0,27.7,0,41.6,0c1.5-5.2,3.2-10.4,4.5-15.7
		c0.6-2.4,1.7-2.9,3.9-2.9c11,0.1,21.9,0.1,32.9,0.1c3,0,6,0,9,0c1.7,5.7,3.1,11.1,4.8,16.4c0.3,0.9,1.5,2.2,2.2,2.2
		c13.2,0.1,26.4,0.1,40,0.1C598.7,181,598.5,180.1,598.2,179.1z M512.4,145.2c5.6-19.7,11.2-39,16.8-58.4c0.2,0,0.5,0,0.7,0
		c5.5,19.3,11.1,38.6,16.8,58.4C535.1,145.2,524,145.2,512.4,145.2z"/>
	<path class="st0" d="M977,156c0-15.9-8.8-26.7-24.4-30.4c0.8-0.2,1.6-0.5,2.4-0.7c15.5-3.6,25-19.2,21-34.7
		c-3.3-12.9-14.3-21.1-28.7-21.1c-26-0.1-51.9,0-77.9,0c-1.2,0-2.4,0-3.7,0c0,38,0,75.7,0,113.2c14.2,0,28.1,0,42.4,0
		c0-15.7,0-31.1,0-46.7c3.6,0,7-0.2,10.3,0c9.8,0.6,17.3,8.3,17.5,18.2c0.1,4.8,0,9.6,0,14.4c0,4.7,0,9.3,0,14.1
		c13.8,0,27.3,0,41.2,0c0-1.4,0-2.6,0-3.8C977,171,977,163.5,977,156z M927.5,113c-5.9,4-12.5,3.3-19.4,3.1c0-11.5,0-22.7,0-33.7
		c4.7,0,9.3-0.5,13.7,0.1c6.9,1,12.1,4.7,13.7,11.9C937.1,101.3,933.6,108.9,927.5,113z"/>
	<path class="st0" d="M723.7,95.9c-3.3-16.3-16.2-26.7-33.7-26.8c-24.6-0.1-49.2,0-73.9,0c-1.1,0-2.1,0.2-3.1,0.3
		c0,37.9,0,75.4,0,113c13.9,0,27.5,0,41.6,0c0-15.8,0-31.4,0-47.3c1.7,0,2.9,0,4.1,0c11.3,0,22.6,0.2,33.9-0.1
		C712.6,134.6,727.7,115.4,723.7,95.9z M668.7,115.6c-3.7,0.7-7.6,0.5-11.3,0.5c-0.7,0-1.9-1.2-1.9-1.9c-0.1-10.6-0.1-21.2-0.1-32.1
		c4.7,0,9-0.4,13.1,0.1c9,1.2,14.6,7,14.8,14.6C683.5,105.9,677.4,114,668.7,115.6z"/>
</g>
</svg>
